<svg xmlns="http://www.w3.org/2000/svg" xmlns:xlink="http://www.w3.org/1999/xlink" width="524.673" height="194.858" viewBox="0 0 524.673 194.858">
  <defs>
    <clipPath id="clip-path">
      <path id="Clip_6" data-name="Clip 6" d="M0,0H524.673V104.421H0Z" transform="translate(0 0.142)" fill="none"/>
    </clipPath>
  </defs>
  <g id="hd-kv" transform="translate(0 -0.142)">
    <path id="Fill_1" data-name="Fill 1" d="M.389.492C.451.5.514.5.575.508.667.5.577.49.389.492" transform="translate(491 55)" fill="#fefefe"/>
    <path id="Fill_3" data-name="Fill 3" d="M.687.44C.571.463.436.5.313.527c.02.01.038.022.058.032C.476.518.583.484.687.44" transform="translate(402 80)" fill="#fefefe"/>
    <g id="Group_7" data-name="Group 7">
      <path id="Clip_6-2" data-name="Clip 6" d="M0,0H524.673V104.421H0Z" transform="translate(0 0.142)" fill="none"/>
      <g id="Group_7-2" data-name="Group 7" clip-path="url(#clip-path)">
        <path id="Fill_5" data-name="Fill 5" d="M8.9,104.421c-.54,0-1.133-.042-1.694-.087l-.226-.019c-.442-.037-.822-.069-1.063-.069H5.836c-.133,0-.4-.016-.714-.034l-3.6.062-.237,0A237.371,237.371,0,0,1,24.8,77.654c11.718-11.608,21.89-19.81,32.013-25.814,4.137-4.18,7.763-7.926,11.086-11.452,5.309-5.635,10.93-11.758,16.06-18.346.307-.395.621-.791.953-1.211l.036-.046c2.721-3.441,5.8-7.341,6.653-11.47a3.305,3.305,0,0,0-.361-2.887A98.374,98.374,0,0,0,72.6,13.687c-5.154,2.565-10.663,5.7-17.338,9.861A258.514,258.514,0,0,0,31.068,40.6a220.914,220.914,0,0,0-21.9,19.9c-.188.2-.692.292-1.539.292-.56,0-1.192-.043-1.736-.084l-.308-.024c-.408-.032-.758-.06-.963-.06H4.561c-.18,0-.524-.024-.96-.054l-.033,0-.378-.026C2.627,60.5,1.9,60.457,1.3,60.457c-.748,0-1.173.064-1.3.2A229.726,229.726,0,0,1,28.235,35.7,222.74,222.74,0,0,1,60.159,15.714,150.188,150.188,0,0,1,74.313,9.149a53.8,53.8,0,0,1,15.073-3.7c-.3-.157-.436-.3-.405-.423.082-.331,1.376-.529,3.463-.529,2.016,0,4.24.2,4.336.5.011.035-.008.071-.057.106,1.843.087,3.039.527,3.653,1.341a3.428,3.428,0,0,1,.343,2.922c-1.011,4.326-4.264,8.381-7.133,11.959-.348.434-.707.882-1.05,1.315-5.521,6.99-11.55,13.487-17.244,19.467-.334.351-.681.7-1.017,1.041l-.007.007c-.292.295-.592.6-.881.9A60.638,60.638,0,0,1,88,41.309a.475.475,0,0,0-.052,0,.208.208,0,0,1-.091-.018c.017-.073,3.918-.267,5.779-.267a3.766,3.766,0,0,1,.977.058h.022c1.859,0,4.146.169,5.341,1.49a4.008,4.008,0,0,1,.822,3.251,16.165,16.165,0,0,1-1.534,5.172,70.8,70.8,0,0,1,9.116-5.247A30.6,30.6,0,0,1,120.1,42.9c-.223-.106-.325-.205-.306-.293.079-.349,2.012-.473,3.644-.473,1.769,0,3.619.142,3.652.38.009.061-.1.125-.329.191h.1c2.683,0,5.564.272,5.791,3.516.246,3.533-2.258,7.52-4.085,10.431l-.013.021-.384.613A134.861,134.861,0,0,1,118.176,70.9c-2.245,2.758-4.61,5.553-7.029,8.308l17.344-8.826a3,3,0,0,1,.663-.213l.064-.015c3.805-4.031,8.969-7.237,13.118-9.812a128.005,128.005,0,0,1,12.821-7.051,4.464,4.464,0,0,1,1.934-.369,18.133,18.133,0,0,1,2.684.284l.013,0a18.085,18.085,0,0,0,2.658.282,4.339,4.339,0,0,0,1.875-.356,127.914,127.914,0,0,0-13.127,7.242,93.614,93.614,0,0,0-8.595,5.875,32.29,32.29,0,0,0-7.135,7.486c-1.712,2.617-2.277,5-1.681,7.078a4.052,4.052,0,0,0,.3.712l.05.1a32.3,32.3,0,0,0,4.666-2.622c8.737-5.857,15.355-14.521,21.207-23.012.156-.226.655-.336,1.525-.336.939,0,2.183.127,3.387.249l.028,0,1.45-.025,2.776-.048a71.911,71.911,0,0,0-2.39,9.823l-.038.231a18.314,18.314,0,0,0-.36,4.993c7.7-3.674,15.669-8.988,25.078-16.725,1.142-2.189,2.269-4.433,3.36-6.6,2.644-5.263,5.379-10.706,8.524-15.774A97.214,97.214,0,0,1,221.878,9.839l.2-.172a73.422,73.422,0,0,1,6.892-5.545A20.345,20.345,0,0,1,236.945.563,40.862,40.862,0,0,1,243.309,0a16.921,16.921,0,0,1,3.676.34c1.3.3,1.842.665,1.789,2.167-.077,2.161-1.687,4.461-2.98,6.31-.139.2-.274.392-.4.578a108.257,108.257,0,0,1-10.133,12.135,339.209,339.209,0,0,1-25.249,24.422c.159-.062.324-.131.47-.192.231-.1.471-.2.712-.283a31.427,31.427,0,0,1,9.5-1.716,27.428,27.428,0,0,1,5.257-.408c.84,0,1.3.044,1.326.127.005.016-.005.033-.031.051h.187a15.95,15.95,0,0,1,6.815,1.215c.674.321,2.877,1.429,2.929,2.194.016.218-.295.576-.544.864a3.377,3.377,0,0,0-.258.319c-1.5,2.359-4.275,4.2-6.795,5.68-9.795,5.775-21.466,6.8-32.62,7.046a36.576,36.576,0,0,0,8.857,15.892A24.694,24.694,0,0,0,219.176,84.1c.171.032.35.05.523.067l.15.016a38.615,38.615,0,0,0,4.994-1.2,57.026,57.026,0,0,0,10.434-4.557,10.327,10.327,0,0,1,.394-3,22.053,22.053,0,0,1,5.3-8.68,57.064,57.064,0,0,1,7.791-6.725,66.634,66.634,0,0,1,18.49-9.967,25.582,25.582,0,0,1,7.93-1.093c.421-.008.972-.065,1.61-.131a28.991,28.991,0,0,1,2.936-.2,4.644,4.644,0,0,1,3.167.815,2.54,2.54,0,0,1,.842,2.344c-.261,1.756-2.077,4.021-5.4,6.732A95.032,95.032,0,0,1,267.2,66.055c-5.458,3.251-11.99,6.736-19.413,10.358l-.55.269a2.682,2.682,0,0,1-.772.189,2.139,2.139,0,0,0,.723-.162c-.861.51-1.782,1.024-2.814,1.571,0,.078-.009.157-.017.232a2.162,2.162,0,0,0-.018.292,10.469,10.469,0,0,0,3.229,7.037,16.874,16.874,0,0,0,6.793,4.069,22.554,22.554,0,0,0,4.085.864,66.934,66.934,0,0,0,9.629-2,130.514,130.514,0,0,0,21.137-8.224,195.781,195.781,0,0,0,23.137-12.873,1.029,1.029,0,0,1,.336-.105c.055-.011.112-.022.164-.036.308-.308.624-.629.9-.913.458-.466.928-.945,1.4-1.4,9.412-9.158,17.522-15.519,25.524-20.017,2.837-2.884,5.367-5.506,7.735-8.015,4.466-4.735,9.187-9.872,13.453-15.358.288-.37.59-.751.882-1.119,2.129-2.684,4.778-6.024,5.413-9.375a3.4,3.4,0,0,0-.078-2.079C358.046,12.148,348.253,17.777,340,22.9a213.016,213.016,0,0,0-20.145,14.161,183.124,183.124,0,0,0-18.232,16.55c-.188.2-.69.291-1.535.291-.561,0-1.193-.043-1.737-.084l-.294-.023-.038,0h-.006c-.395-.031-.735-.057-.936-.057h-.064c-.18,0-.515-.023-.938-.053l-.427-.029c-.6-.041-1.3-.082-1.9-.082-.745,0-1.168.064-1.294.2a190.567,190.567,0,0,1,23.692-20.9,181.787,181.787,0,0,1,26.83-16.645c7.265-3.654,15.05-7.285,23.329-8.058a.306.306,0,0,0-.038-.014.273.273,0,0,1-.043-.017c-.289-.157-.419-.3-.388-.422.085-.336,1.4-.537,3.519-.537,2.047,0,4.451.213,4.629.519a.069.069,0,0,1,0,.073A3.946,3.946,0,0,1,376.96,8.9a2.673,2.673,0,0,1,.39,2.182c-.6,3.472-3.39,6.946-5.631,9.738-.344.429-.669.834-.982,1.233-4.458,5.679-9.385,11.007-14.045,15.918-.166.175-.343.354-.5.512s-.335.339-.5.511c.029-.008.058-.018.086-.027s.064-.022.1-.03a58.3,58.3,0,0,1,13.984-1.61,63.675,63.675,0,0,1,6.45.323c2.393.244,4.162,1,5.117,2.2a4.357,4.357,0,0,1,.826,3.361,5.033,5.033,0,0,1-.1.521l0,.011c-.018.081-.037.162-.053.243l.464-.209c.745-.336,1.515-.684,2.292-.974a26.742,26.742,0,0,1,7.863-1.5c-.146-.064-.214-.127-.2-.184.063-.3,2.221-.46,4.22-.46,1.521,0,3.073.1,3.11.325.01.061-.091.128-.3.2h.735c2.5,0,5.184.23,5.382,2.978.193,2.684-1.937,5.655-3.493,7.824l-.032.045-.312.437a102.648,102.648,0,0,1-9.168,10.808c-1.238,1.307-2.536,2.6-3.791,3.857l-.008.008-.59.589,7.231-3.428,7.788-3.691a54.712,54.712,0,0,1,11.9-6.024,5.879,5.879,0,0,1,2.015-.307,20.916,20.916,0,0,1,2.6.225l.013,0a20.9,20.9,0,0,0,2.574.223,5.751,5.751,0,0,0,1.967-.3,53.6,53.6,0,0,0-14.274,7.717,24.517,24.517,0,0,0-7.425,8.887c-1.074,2.24-2.872,5.988-1.186,8.449a3.225,3.225,0,0,0,1.207,1.038,20.877,20.877,0,0,0-3.234,1.042,6.205,6.205,0,0,1,1.051-.281c.265-.055.539-.111.79-.189.384-.12.766-.273,1.136-.42l.052-.021.258-.1a10.729,10.729,0,0,0,1.131.48l.358.138a2.745,2.745,0,0,0,1,.21,1.032,1.032,0,0,0,.8-.279.322.322,0,0,0,.073-.277c-.056-.256-.483-.555-1.5-.555a8.192,8.192,0,0,0-1.567.176,32.89,32.89,0,0,0,6.863-3.938A29.808,29.808,0,0,0,419,66.281a2.488,2.488,0,0,1-.708-.118h-.1l.024-.005.034-.005a1.124,1.124,0,0,1-.814-.742c-.517-1.614,1.528-4.766,2.881-6.852.288-.443.536-.826.715-1.127.1-.164.858-.243,2.326-.243,1.134,0,2.514.047,3.731.088l1.026.034,1.836-.032H430l.193,0a17.22,17.22,0,0,1-.938,6.345c2.922-1.015,5.762-2.184,8.4-3.3a21.537,21.537,0,0,1,7.834-1.462c.722-.025,1.455-.07,2.232-.118,1.18-.073,2.4-.148,3.588-.148a18.875,18.875,0,0,1,2.6.158c.97.134,1.5.267,1.7.616.17.29.118.729-.174,1.469a19.1,19.1,0,0,1-2.416,3.969,25.548,25.548,0,0,0-1.953,2.98c-1.256,2.394-2.539,5.151-1.87,7.565a4.121,4.121,0,0,0,2.233,2.631,3.727,3.727,0,0,0,.645.241l.079.024a13.221,13.221,0,0,1,2.525-6c5.188-7.072,13.541-11.838,19.635-14.591A24.492,24.492,0,0,1,482,55.269c1.682-.154,3.38-.175,4.819-.175.561,0,1.143,0,1.656.007.535,0,1.016.006,1.493.007.143,0,.309-.007.485-.015.2-.009.434-.018.663-.018.169,0,.317.005.455.016a11.392,11.392,0,0,0-1.151.081c1.023-.034,1.27-.059,1.322-.066a1.653,1.653,0,0,1,.741.233c1.8,1.24.545,4.527.116,5.505-1.273,2.9-3.672,5.64-7.336,8.373A44.19,44.19,0,0,1,473.778,75.3a61,61,0,0,1-12.686,2.992,8.227,8.227,0,0,0,2.292,7.16,14.354,14.354,0,0,0,8.528,4.155l.373-.046c.291-.035.589-.071.882-.123a60.016,60.016,0,0,0,6-1.406c11.543-3.283,23.769-9.125,36.339-17.365a3.088,3.088,0,0,1,1.606-.3c.526,0,1.1.044,1.6.086l.173.015c.46.039.854.072,1.149.072h.1c.271,0,.683.034,1.16.074l.241.02c.6.049,1.223.095,1.768.095a2.772,2.772,0,0,0,1.366-.222A161.829,161.829,0,0,1,504.218,82.1a88.3,88.3,0,0,1-22.254,7.248,78.267,78.267,0,0,1-12.684.737l-1.159,0h-.388a22.241,22.241,0,0,1-9.511-1.607,11.059,11.059,0,0,1-4.885-4.1,8.871,8.871,0,0,1-1.3-5.416h0c-.057,0-.115,0-.165.006s-.115.006-.171.007c-.522.008-1.1.037-1.7.066-.844.041-1.713.084-2.6.084a15.126,15.126,0,0,1-3.407-.323,5.941,5.941,0,0,1-2.8-1.38c-1.512-1.412-1.687-3.62-.534-6.749a35.773,35.773,0,0,1,4.009-7.268c.13-.2.279-.406.436-.629l.007-.009a7.841,7.841,0,0,0,1.347-2.427l-.192.1c-.175.093-.355.189-.536.277a52.491,52.491,0,0,1-16.613,5.108c-.142.017-.286.024-.425.031-.121.006-.242.012-.361.023a26.079,26.079,0,0,1-5.461,7.3,37.433,37.433,0,0,1-7.336,5.437,24.6,24.6,0,0,1-6.635,2.552,31.655,31.655,0,0,1-7.126.78,38.412,38.412,0,0,1-5.385-.389c-2.161-.307-3.585-1.184-4.232-2.608-1.462-3.213,1.373-8.169,2.659-10.151L384.283,73.8l-4.776,2.263a4.029,4.029,0,0,1-1.681.27c-.48,0-.98-.035-1.494-.073l-.1-.007c-.449-.034-.869-.066-1.218-.066H374.9c-.144,0-.392-.016-.655-.034l-3.906.067c4.835-4.317,9.566-8.948,14.061-13.765a97.953,97.953,0,0,0,8.252-9.836l.305-.427c1.49-2.08,3.53-4.93,3.53-7.578a2.866,2.866,0,0,0-.991-2.377,42.858,42.858,0,0,0-9.436,4.414c-2.678,1.634-5.433,3.52-8.672,5.936-.466.591-.931,1.169-1.363,1.705a137.336,137.336,0,0,1-12.309,13c-5.756,5.46-11.558,10.525-17.247,15.056a2.725,2.725,0,0,1-1.567.3c-.528,0-1.112-.043-1.664-.089l-.226-.019c-.439-.037-.818-.069-1.075-.069h-.08c-.128,0-.353-.013-.675-.033l-3.877.066a250.819,250.819,0,0,1,18.38-18.9c3.937-3.673,8.161-7.557,12.709-11.11,2.2-2.844,4.293-5.918,4.688-9.134a4.259,4.259,0,0,0-1.03-3.6,6.4,6.4,0,0,0-3.384-1.717,43.03,43.03,0,0,0-4.423.94,56.7,56.7,0,0,0-10.234,3.941c-1.382.679-2.822,1.45-4.533,2.425-13.657,13.936-28.966,28.431-46.8,44.311a2.586,2.586,0,0,1-1.555.3c-.542,0-1.135-.042-1.694-.087l-.259-.021c-.429-.036-.8-.066-1.034-.066h-.059c-.133,0-.423-.016-.73-.033l-3.833.066c2.71-3.723,5.75-7.508,9.293-11.571-5.222,2.624-10.005,4.789-14.622,6.622-6.087,2.417-14.168,5.283-22.7,6l-.593.05c-2.9.245-6.192.522-9.426.522-5.062,0-9.072-.7-12.258-2.131a13.637,13.637,0,0,1-7.331-7.356A49.91,49.91,0,0,1,220.67,84.6c-.841.017-1.7.025-2.563.025q-.48,0-.958,0c-.229.008-.4.012-.515.012-.158,0-.159-.008-.16-.011s0,0,.023-.01a37.942,37.942,0,0,1-8.074-.854,22.011,22.011,0,0,1-7.572-3.283A31.757,31.757,0,0,1,191.5,70.038c-5.584,9.406-11.259,18.554-16.864,27.19-.068.105-.156.272-.258.466a3.866,3.866,0,0,1-.888,1.293,6.856,6.856,0,0,1-3.056.463c-1.158,0-2.395-.088-3.486-.165-.341-.024-.661-.047-.952-.065h-.158a6.933,6.933,0,0,1-.868-.043h-.381a8.972,8.972,0,0,1-2.648-.272,2.763,2.763,0,0,1-1.865-1.71,6.027,6.027,0,0,1-.137-3.471,15.462,15.462,0,0,1,1.483-3.827,51.226,51.226,0,0,1,4.607-6.854l.017-.022c.269-.354.523-.689.744-.986a116.351,116.351,0,0,1,10.283-11.955,36.253,36.253,0,0,1-6.938,3.1,11.336,11.336,0,0,1-2.359.421c.474.243.7.435.666.57-.041.171-.493.258-1.343.258a56.492,56.492,0,0,1-5.859-.491c-.2.009-.382.014-.557.014-1.308,0-2.87-.226-3.343-1.989a4.585,4.585,0,0,1-.1-.577v-.011c-.013-.1-.026-.2-.043-.292a46.653,46.653,0,0,1-13.145,10.05c-3.281,1.6-7.187,2.342-12.291,2.342-1.245,0-2.609-.041-4.291-.13a2.908,2.908,0,0,1-2.383-1.214c-.966-1.4-.727-3.713-.182-5.412l-11.711,5.959-.584.3-9.2,4.682a3.77,3.77,0,0,1-1.658.277c-.488,0-1-.037-1.521-.077l-.075-.006c-.461-.036-.9-.07-1.245-.07h-.113c-.148,0-.416-.017-.658-.034l-1.828.031h-.031l-.322.005-1.712.029c5.645-5.886,11.118-12.148,16.266-18.613a119.236,119.236,0,0,0,9.114-12.776l.3-.5c1.691-2.807,3.8-6.3,3.562-9.554a3.455,3.455,0,0,0-1.235-2.6,50,50,0,0,0-12.86,6.561A160.248,160.248,0,0,0,86.818,69.094c-1.734,2.156-3.517,4.308-5.3,6.4C75.5,82.547,69.414,89.2,63.437,95.264c-.195.2-.7.293-1.54.293-.558,0-1.187-.043-1.728-.085L59.9,95.45c-.426-.034-.792-.063-1.007-.063h-.058c-.127,0-.372-.013-.7-.033l-3.859.066c5.9-7.351,12.554-14.775,20.326-22.7.212-.216.427-.433.643-.65l.041-.041c.2-.2.4-.4.6-.6A153.368,153.368,0,0,0,85.965,58.01l.461-.7c2.231-3.371,5-7.56,5.238-11.651a3.86,3.86,0,0,0-1.175-3.439,2.176,2.176,0,0,0-.572-.339c-7.057,1.4-14.324,4.3-22.215,8.86-.446.257-.884.532-1.308.8-.279.174-.565.354-.85.526C49.34,68.51,31.317,85.539,10.447,104.123A2.583,2.583,0,0,1,8.9,104.421ZM484.177,57.139a55.987,55.987,0,0,0-16.411,10.626c-2.175,2.025-5.021,5.187-6.224,8.752a49.681,49.681,0,0,0,11.04-4.678,30.677,30.677,0,0,0,8.808-7.522c2.239-2.89,3.152-5.234,2.792-7.167l0-.006ZM274.047,50.785h0c-1.525.607-2.992,1.256-4.36,1.93a70.591,70.591,0,0,0-17.141,11.593,29.861,29.861,0,0,0-6.893,8.762c7.691-3.88,15.782-8.244,22.845-13.863l.012-.01c2.771-2.2,6.22-4.949,5.538-8.412Zm-50.306-6.4h0A35.471,35.471,0,0,0,218.8,45.92,73.363,73.363,0,0,0,202.6,55.5c-1.456,1.086-3,2.293-4.85,3.8q-.222.393-.446.783l-.052.091-.189.331c.525-.033.919-.062,1.138-.085,1.324-.137,2.653-.307,3.951-.506a66.264,66.264,0,0,0,7.325-1.521c7.042-1.9,12.291-4.6,16.047-8.253.1-.093.223-.21.371-.345.708-.646,1.889-1.725,1.962-2.439.1-.965-1.363-1.728-2.33-2.233l-.086-.045a10.506,10.506,0,0,0-1.7-.694Zm15.726-41A55.3,55.3,0,0,0,234.71,6.66,91.2,91.2,0,0,0,219.5,21.782a104.764,104.764,0,0,0-11.259,17.788c10.815-9.834,18.9-18.284,25.442-26.594l.047-.059C235.546,10.609,238.709,6.3,239.467,3.389Z" transform="translate(0 0.142)" fill="#fefefe"/>
      </g>
    </g>
    <path id="Fill_8" data-name="Fill 8" d="M36.775,64h0c-1.829,0-3.956-.246-4.081-.6-.017-.047,0-.1.063-.143a4.214,4.214,0,0,1-1.4-.2c-1.7-.671-1.346-2.18-.876-3.542a21.8,21.8,0,0,1,1.5-3.3,69.807,69.807,0,0,1-10.562,5.55,20.726,20.726,0,0,1-7.388,1.642c-.708.025-1.582.1-2.508.182-1.478.129-3.152.275-4.779.275A10.816,10.816,0,0,1,1.3,62.806a2.394,2.394,0,0,1-1.3-1.9c-.247-3.126,5.419-7.844,7.552-9.62.19-.158.353-.294.482-.4A190.538,190.538,0,0,1,25.934,37.537c6.7-4.468,13.665-8.655,18.984-11.8l-18.753.272L17.6,26.13h-.239c-.262,0-.619,0-.964-.006l-.216,0h-.014c-.39,0-.833-.007-1.169-.007s-.537,0-.593.012a15.724,15.724,0,0,1,2.526-.164c.455,0,.917.01,1.363.019H18.3c.491.011.933.019,1.372.019l.362,0,30.74-.445H50.8c.155,0,.429.021.746.045l.244.019c.423.032.913.064,1.341.064a2.282,2.282,0,0,0,1.01-.142c-4.443,2.63-9.236,5.62-14.652,9.142A224.218,224.218,0,0,0,17.865,50.167c-.209.174-.484.4-.8.651-2.934,2.357-9.805,7.877-7.495,11.14a2.088,2.088,0,0,0,.688.583,38.894,38.894,0,0,0,6.2-2.647,119.564,119.564,0,0,0,17.4-11.715c5.594-4.43,11.1-9.334,15.95-13.66a2.572,2.572,0,0,1,1.549-.3c.54,0,1.134.042,1.7.088l.288.024c.419.035.778.065,1.008.065h.071c.147,0,.415.017.658.034l1.945-.033,1.945-.033c-2.916,3.061-5.924,6.427-8.94,10.007q-.467.554-.942,1.114c-3.4,4.018-6.921,8.172-9.035,12.873a6.024,6.024,0,0,0-.642,2.513,61.122,61.122,0,0,0,8.991-5.763c8.6-6.37,16.238-13.811,23.208-20.9.194-.2.7-.293,1.542-.293.559,0,1.185.043,1.724.084l.289.023.021,0c.41.033.765.061.973.061h.054c.139,0,.51.013.98.029l1.759-.03h.017l1.8-.031a141.555,141.555,0,0,0-5.186,13.568l-.011.035c-1.195,3.7-2.43,7.527-2.178,11.33,1.189-.882,2.411-1.849,3.733-2.958A235.715,235.715,0,0,0,99.774,33.8c.177-.194.68-.288,1.538-.288.567,0,1.2.041,1.743.082l.264.02.061,0c.4.031.746.058.942.058h.059c.134,0,.41.015.729.033l2.439-.042.093,0,1.287-.022c-.935,1.321-4.011,5.87-6.961,11.013-3.771,6.574-5.791,11.385-6,14.3,1.277-.993,2.509-2.087,3.6-3.052.6-.533,1.165-1.035,1.689-1.477a420.067,420.067,0,0,0,32.313-30.877c.079-.092.161-.184.241-.272s.135-.149.2-.224l-25.1,1.519-.08.085-.058.061-2.446.012-.51.031.839-.013h.038c.682-.01,1.386-.021,2.078-.029l.073,0h.177c-.017.006-1.362.037-2.924.066-1.364.025-3.893.067-5.5.067a8.791,8.791,0,0,1-1.4-.043s0-.019.27-.045a.01.01,0,0,1-.007-.005c-.028-.058.079-.668,4.947-7.028.189-.248,1.068-.373,2.613-.373.814,0,1.672.033,2.328.063l.508.023c.475.022.85.039,1.043.039h.067c.177,0,.521.023.956.052l.406.027c.569.037,1.3.08,1.9.08.748,0,1.169-.062,1.287-.19-1.738,1.9-2.473,2.716-2.912,3.205-.76.847-.76.847-3.484,3.7.61-.026,1.067-.05,1.394-.076,6.916-.519,14.514-1.057,23.911-1.693,6.809-7.848,13.22-14.723,19.6-21.018a2.473,2.473,0,0,1,1.542-.3c.555,0,1.181.043,1.72.086l.269.022c.429.034.8.064,1.017.064h.052c.127,0,.362.013.675.033l3.642-.062.112,0,.128,0c-4.184,4.569-8.786,9.477-14.481,15.449-.54.566-1.1,1.137-1.633,1.688l-.008.008c-.457.469-.929.953-1.388,1.432l-.395.445-.061.069c-.423.477-.859.969-1.284,1.457l2.395-.157c4.825-.316,9.815-.643,14.754-.958,3.934-5,7.263-8.9,10.475-12.3q.324-.342.66-.7c2.511-2.676,5.637-6.007,9.256-7.045a13.493,13.493,0,0,1,3.318-.375l.451-.014c.252-.008.706-.051,1.28-.1,1.3-.122,3.275-.305,5.121-.305,2.955,0,4.586.479,4.847,1.425.67,2.424-4.6,6.566-7.43,8.792-.609.478-1.089.856-1.385,1.117-3.27,2.886-6.543,5.872-9.708,8.759l-.014.013c-1.673,1.526-3.4,3.1-5.112,4.648-2.315,2.092-4.708,4.177-7.021,6.193L164.029,32.5a19.614,19.614,0,0,1,2.129-.172c.5-.013,1.174-.085,1.953-.169a36.5,36.5,0,0,1,3.822-.272,5.9,5.9,0,0,1,3.671.852c2.5,2.028-.984,7.4-2.657,9.979-.218.336-.406.627-.548.858-.871,1.421-1.848,2.859-2.793,4.25A50.3,50.3,0,0,0,164,57.556a4.722,4.722,0,0,0-.353,1.476c.846-.429,1.672-.852,2.465-1.321,7.654-4.523,14.121-10.86,20.376-16.987,1.1-1.076,2.234-2.189,3.356-3.272a2.5,2.5,0,0,1,1.546-.3c.549,0,1.147.041,1.711.086l.311.025c.407.033.759.062.975.062h.072c.194,0,.556.026.975.057l.391.028c.6.042,1.289.085,1.876.085a2.349,2.349,0,0,0,1.3-.2c-1.064,1.027-2.131,2.071-3.163,3.081l-.005,0c-2.547,2.493-5.18,5.07-7.878,7.495a80.457,80.457,0,0,1-10.913,8.568,30.756,30.756,0,0,1-12.714,4.78l.037,0c.094.012.182.023.2.065a.307.307,0,0,1,0,.317c-.144.236-.622.419-1.421.543a17.363,17.363,0,0,1-2.569.164c-1.751,0-3.722-.193-3.992-.516a.107.107,0,0,1-.029-.09c-1.158-.129-1.867-.466-2.167-1.027-.659-1.236.508-3.348,1.205-4.609l0-.005c.091-.164.176-.319.247-.453,1.4-2.658,3.084-5.214,4.708-7.686s3.317-5.049,4.727-7.721c.081-.154.169-.316.26-.485.751-1.394,1.78-3.3,1.719-4.915-4.583,3.038-8.621,7.715-12.184,11.842-.668.774-1.3,1.5-1.927,2.218-2.419,2.746-4.842,5.625-7.406,8.8-.3.374-.615.842-.947,1.338a10.416,10.416,0,0,1-2.235,2.682c-.044.03-.087.062-.13.093a2.13,2.13,0,0,1-.33.212,1.366,1.366,0,0,1-.577.106c-.059,0-.12,0-.181.009-.961.935-3.689,1.495-5.771,1.495-1.48,0-2.474-.264-2.727-.725a.662.662,0,0,1,.086-.7c-.055,0-.1.007-.135.011s-.064.006-.087.006c-.1,0-.108-.048-.159-.312-.012-.064-.026-.137-.044-.223-.119-.582.659-1.752,1.174-2.526.137-.206.255-.384.327-.507.607-1.042,1.267-2.079,1.906-3.081l.341-.536c-.32.229-.639.461-.948.686-.743.539-1.508,1.095-2.279,1.614-.313.211-.625.424-.955.65-2.174,1.487-4.634,3.17-7.171,3.829a11.97,11.97,0,0,1-2.837.269c-.194,0-.388.006-.581.01-.6.014-1.293.08-2.023.149-.93.088-1.89.179-2.8.179-.2,0-.383,0-.56-.013l-.18,0c-.316,0-.478-.034-.5-.1-.088-.012-.179-.022-.267-.031a3.425,3.425,0,0,1-.628-.106,3.711,3.711,0,0,1-2.5-3.223,12.3,12.3,0,0,1,1.123-6.713,65.68,65.68,0,0,1-11.62,8.681A11.034,11.034,0,0,1,97.943,62.1a.264.264,0,0,1,.076.024.237.237,0,0,0,.088.025l-.3,0-.15,0a23.129,23.129,0,0,1-3.514.223c-.692,0-1.395-.016-2.075-.032-.583-.013-1.186-.027-1.779-.031a1.663,1.663,0,0,1-.229-.02c-.055-.008-.112-.015-.175-.019l-.355.012h-.011l-.394.013a1.134,1.134,0,0,0,.176-.036,1.38,1.38,0,0,1,.149-.033A3.121,3.121,0,0,1,87,60.965c-.657-1.036-.567-2.641.292-5.2.068-.2.148-.406.224-.6.054-.137.108-.277.158-.415a69.744,69.744,0,0,1-6.815,5.29A12.833,12.833,0,0,1,75.268,62.5a34.068,34.068,0,0,1-3.723.168c-.512,0-1.032-.005-1.535-.01l-.262,0a19.539,19.539,0,0,1-2.15.224c-.259,0-.4-.03-.43-.093-.014-.028,0-.064.029-.106-.214.009-.362.013-.493.013a2.941,2.941,0,0,1-1.477-.3c-1.416-.866-1.833-3.009-1.241-6.368A50.027,50.027,0,0,1,66.227,48.3l.153-.431A113,113,0,0,1,53.263,57.947c-3.608,2.336-7.487,4.648-11.745,5.029-.229.02-.463.027-.69.033-.136,0-.277.007-.415.014a.351.351,0,0,1-.066.317C40.031,63.754,38.7,64,36.775,64ZM8.85,63.005c-.836.159-1.523.3-2.229.471a5.173,5.173,0,0,1,.688-.1,4.961,4.961,0,0,0,.731-.107,4.343,4.343,0,0,0,.44-.143c.121-.044.244-.089.37-.124h0Zm4.108-.476a17.92,17.92,0,0,0-2.365.189,7.391,7.391,0,0,0,1.478.433,6.242,6.242,0,0,0,1.223.13,2.011,2.011,0,0,0,1.206-.267.157.157,0,0,0,.053-.109C14.553,62.732,14.135,62.53,12.958,62.53ZM160.69,21.323h0c-6.109.4-11.619.753-17.2,1.13-2.815,3.248-5.1,5.972-7.187,8.571-4.959,6.175-8.9,11.482-12.025,17.312l-.058.108a37.3,37.3,0,0,0-2.4,5.133,9.534,9.534,0,0,0-.576,5.625c1.562-.971,3.061-2.013,4.586-3.083,7.862-5.521,15.32-11.69,21.577-17l.5-.688.065-.089.292-.4.427-.584c3.871-5.3,7.874-10.777,12-16.04Zm26.455-18.77a28.788,28.788,0,0,0-3.377,2.769,102.206,102.206,0,0,0-8.217,8.8c.233-.207.468-.42.7-.626l0,0c.242-.22.517-.469.783-.7q.594-.523,1.191-1.044c1.924-1.684,3.912-3.423,5.748-5.256.165-.165.357-.347.561-.539C185.508,5.025,186.842,3.761,187.145,2.552Z" transform="translate(54 99)" fill="#fefefe"/>
    <path id="Fill_10" data-name="Fill 10" d="M261.832,109h0c-36.018,0-74.383-1.6-120.737-5.019-20.821-1.538-41.971-3.383-64.657-5.64-4.26-.424-8.607-.83-12.81-1.222H63.62c-13.276-1.239-27-2.521-40.336-4.589l-.976-.151c-3.206-.494-6.84-1.053-10.273-1.937a30.7,30.7,0,0,1-9.5-3.952C.673,85.243-.17,83.919.029,82.554c.3-2.04,2.883-4.188,7.682-6.385a84.031,84.031,0,0,1,9.868-3.62l.03-.009L18,72.418a6.878,6.878,0,0,1,2.059-.275,23.261,23.261,0,0,1,2.548.193,23.172,23.172,0,0,0,2.541.193,6.781,6.781,0,0,0,1.991-.26c-.632.2-1.279.392-1.964.6l-.043.013A75.236,75.236,0,0,0,17.3,75.563a20.567,20.567,0,0,0-6.761,4.313C9.36,81.082,8.968,82.269,9.373,83.4c.549,1.541,2.573,3.023,6.014,4.4a70.223,70.223,0,0,0,11.192,3.175c3.7.784,9.883,1.92,18.363,2.876,46.264,5.218,87.829,8.966,127.072,11.46,25.505,1.621,59.183,3.481,93.507,3.481a748.627,748.627,0,0,0,76.552-3.61c11.552-1.18,26.716-2.924,41.565-5.954a189.161,189.161,0,0,0,40.031-12.414,86.645,86.645,0,0,0,15.425-8.591,48.013,48.013,0,0,0,6.717-5.8,34.288,34.288,0,0,0,5.214-7.041,28.125,28.125,0,0,0,1.371-2.862l-.485.355-.585.429-1.558,1-.142.092-5.94,3.822a44.606,44.606,0,0,1-10.965,5.279,22.387,22.387,0,0,1-5.585,1.013l-.345.018-.263.014c.042.012.059.022.058.033a40.667,40.667,0,0,1-5.589.231c-.885,0-1.577-.013-2-.037-.986-.027-1.877-.089-2.724-.188a8.567,8.567,0,0,1-5.137-2.481,38.57,38.57,0,0,1-9.187,3.8,25.41,25.41,0,0,1-5.528.69c.15.045.221.087.215.126-.03.2-2.1.3-4.006.3a14.121,14.121,0,0,1-3.389-.216.022.022,0,0,1,0-.025c-.83-.018-1.5-.053-2.121-.108a8.687,8.687,0,0,1-5.615-2.632c-2.57,1.448-5.215,2.887-7.862,4.278a46.182,46.182,0,0,1-8.683,1.146c-2.1.069-4.855.148-7.6.148-.509,0-1.017,0-1.51-.008a21.335,21.335,0,0,1-3.577-.3,11.63,11.63,0,0,1-4.9-2.073,6.348,6.348,0,0,1-2.671-4.442.859.859,0,0,1,.008-.186,1.046,1.046,0,0,0,.01-.155c-3.185.43-5.8.682-8.235.794l-.3.014c-2.9.133-5.907.27-8.893.27a55.235,55.235,0,0,1-12.054-1.118A29.485,29.485,0,0,1,304.2,67.647c-1.445-1.035-2.873-2.111-4.254-3.152-.57-.43-1.156-.872-1.737-1.305-4.506,4.556-8.746,8.521-12.962,12.121-6.692,5.717-14.767,11.987-23.922,15.147a32.415,32.415,0,0,1-9.94,1.7c-.737.02-1.489.05-2.217.079-1.338.053-2.722.109-4.086.109a29.266,29.266,0,0,1-5.456-.434c-4.678-.877-7.427-2.842-8.172-5.842a10.26,10.26,0,0,1,.631-5.956,28.69,28.69,0,0,1,3.53-6.444A53.71,53.71,0,0,1,245.179,63.4c8.351-6.643,19.825-10.082,34.1-10.222.454-.022.783-.032,1.006-.032s.327.01.333.031c0,0,0,.01-.013.016l.708,0c.824,0,1.675,0,2.506.035a33.65,33.65,0,0,1,12.107,2.894c2.639-2.841,5.023-5.464,7.288-8.019,2.867-3.235,5.726-6.64,8.491-9.932,3.142-3.741,6.39-7.61,9.708-11.3-7.627,1.031-14.32,1.709-20.46,2.074-14.938.89-30.1,1.782-44.755,2.645l-1.152.068-18.3,1.078c-1.173.069-2.549.079-3.74.079l-1.134,0h-.054l-1.127,0c-.88,0-1.886.006-2.683.049l1.435-.086.832-.049c6.975-.412,14.069-.817,20.929-1.209l.084,0h.022c13.869-.792,28.21-1.612,42.307-2.526a259.094,259.094,0,0,0,29.035-3.474c6.552-7.159,15.6-16.11,27.462-21.827A32.646,32.646,0,0,1,360.246.789a.234.234,0,0,1-.008-.245C360.438.2,361.616,0,363.389,0c1.7,0,3.625.206,3.782.539a.106.106,0,0,1-.022.119c.236.019.477.027.71.036.343.012.7.025,1.041.071a2.827,2.827,0,0,1,2.488,1.524c.866,2.1-1.444,5.783-3.535,8.505a23.343,23.343,0,0,1-7.617,6.272A54.362,54.362,0,0,1,351,20.808a139.454,139.454,0,0,1-19.274,4.541c-3.857,4.236-7.605,8.709-11.23,13.034-3.293,3.93-6.7,7.993-10.175,11.868-2.552,2.845-5.276,5.784-8.325,8.986a77.844,77.844,0,0,1,8.511,6,33.621,33.621,0,0,0,17.9,7.755c.26.029.847.056,1.468.084.465.021.942.043,1.27.066,1.786-.159,3.629-.374,5.478-.64,2.819-.405,5.7-.926,8.171-1.381a9.717,9.717,0,0,1,3.342-5.164,30.212,30.212,0,0,1,5.091-3.551,40.611,40.611,0,0,1,7.115-3.227A21.854,21.854,0,0,1,365.9,58.1l-.047-.01-.052-.012c-.062-.012-.092-.024-.091-.037a50.632,50.632,0,0,1,6.625-.327,5.991,5.991,0,0,1,1.815.113c0,.021-.044.044-.143.071l.148,0h.3c.081,0,.152,0,.216,0l.088,0a2.44,2.44,0,0,1,.731.107,1.08,1.08,0,0,1,.7.96c.2,1.2-.427,2.635-1.869,4.278-3.718,4.239-10.046,6.737-18.808,7.426h.019l-.51.093-.318.057-.014,0-.726.131a5.793,5.793,0,0,0-.1,1.536c.2,2.923,2.751,5,4.871,5.884a12.453,12.453,0,0,0,2.5.717c1.171-.184,2.234-.384,3.251-.612a1.708,1.708,0,0,1,.309-.031l.061,0h-.04a.945.945,0,0,0-.329.033A163.415,163.415,0,0,0,385.8,65.611c.816-.6,1.664-1.235,2.413-1.792,3.178-2.365,6.463-4.808,9.792-7.072q.408-.278.819-.561c2.35-1.617,4.78-3.288,7.561-3.8l.069-.069.033-.034.462-.006h.079l.376,0c.057,0,.115-.012.171-.019.084-.011.168-.022.253-.025,1.589-.045,3.15-.071,5.006-.1.076,0,.25.015.47.033l.311.026.623-.007.538-.023.112,0h.032l.56-.024a3.149,3.149,0,0,0-.361.072c-.067.016-.136.033-.2.046a1.331,1.331,0,0,0,.737-.123c-1.86,1.812-3.769,3.843-5.673,6.037l-.2.226c-2.455,2.829-5.238,6.035-6.357,9.706a15.282,15.282,0,0,1-2.253,4.6c2.981-1.6,5.868-3.5,8.66-5.334.921-.606,1.871-1.23,2.805-1.831,2-1.43,4.006-2.922,5.946-4.365,2.54-1.889,5.163-3.84,7.8-5.675a60.521,60.521,0,0,1,6.692-4.22,9.521,9.521,0,0,1,2.8-.894l.06-.06.007-.007.069-.069.361,0h.041l.375,0a37.816,37.816,0,0,1,4-.141h.425c1.886-.129,3.151-.195,3.76-.195.292,0,.435.014.437.044s-.249.1-.75.193l-.058.013-.015,0-.074.017-.056.017-.045.013a1.547,1.547,0,0,0,.763-.118c-1.372,1.334-2.825,2.853-4.441,4.645a56.9,56.9,0,0,0-6.059,7.7,19.34,19.34,0,0,0-1.646,3.663,17.836,17.836,0,0,1-1.794,3.881,3.5,3.5,0,0,1-.277.344c-.073.084-.147.168-.213.254,3.058-1.632,6.015-3.566,8.876-5.437.831-.544,1.691-1.106,2.541-1.653a1.051,1.051,0,0,1,.525-.088c.137,0,.284.008.423.016l.068,0c.1.006.211.013.291.013h.035c.616-.016,1.24-.028,1.843-.04l.275-.005-.059,0c-.659-.054-1.4-.115-2.055-.115a2.586,2.586,0,0,0-1.346.222l9.571-7.009L453.6,55.1a19.962,19.962,0,0,1,4.344-.25c2.37,0,4.795.072,4.82.092a.529.529,0,0,1,.006.068.317.317,0,0,0,.021.13c.492.81,0,2.853-.259,3.951-.034.143-.065.27-.088.376a24.05,24.05,0,0,1-4.019,8.572,42.541,42.541,0,0,1-7.109,7.671,60.732,60.732,0,0,1-8.69,6.1,118.863,118.863,0,0,1-19.244,8.664,250.4,250.4,0,0,1-47.532,11.659c-17.516,2.693-35.265,4.025-48.77,4.885C306.411,108.333,284.46,109,261.832,109ZM277.19,53.755l-.345.061-.028,0c-.363.064-.738.13-1.106.209-1.3.283-2.654.644-4.27,1.135l-1.206.365-.061.018c-2.555.769-5.2,1.565-7.656,2.584-6.9,2.86-12.616,8.611-16.195,12.933a32.41,32.41,0,0,0-4.982,7.55c-1.513,3.373-1.633,6.273-.359,8.619,1.2,2.2,3.63,3.65,7.438,4.427l.111-.019c.061-.009.121-.019.178-.033a34.636,34.636,0,0,0,5.4-1.727,63.694,63.694,0,0,0,12.958-7.272,132.839,132.839,0,0,0,11.579-9.384c4.436-3.947,9.072-8.464,14.172-13.809a42.744,42.744,0,0,0-4.219-2.359,39.291,39.291,0,0,0-7.285-2.709A23.039,23.039,0,0,0,278,53.841l-.015,0C277.723,53.813,277.454,53.785,277.19,53.755ZM388.27,71.331h0c.658,0,1.028.057,1.1.17a15.68,15.68,0,0,0,1.831,2.318,11.944,11.944,0,0,0,2.3-3.338,13.647,13.647,0,0,0,.649-1.849,14.769,14.769,0,0,1,.585-1.707,16.841,16.841,0,0,1,1.189-2.186l-.207.154c-.506.376-1,.743-1.487,1.1-2.341,1.722-4.971,3.456-8.275,5.455C386.763,71.387,387.606,71.331,388.27,71.331Zm30.169-1.915a1.428,1.428,0,0,1,.457.037,14.805,14.805,0,0,0,1.8,2.358,12.273,12.273,0,0,0,2.239-3.2,12.993,12.993,0,0,0,.7-1.963,15.638,15.638,0,0,1,.556-1.638,16.975,16.975,0,0,1,1.26-2.33l-.813.6c-.928.689-1.888,1.4-2.848,2.087l-4.48,2.883-.53.341-1.37.881.381-.006h.015c.57-.009,1.159-.018,1.739-.022h-.009s.007,0,.018,0l.247-.01C417.916,69.425,418.189,69.416,418.439,69.416Zm-63.125,1.278c-.285.02-.576.028-.856.036-.142,0-.285.008-.427.013a.25.25,0,0,1-.008.026.255.255,0,0,0-.009.028l.117-.005A10.424,10.424,0,0,0,355.314,70.693ZM367,59.892h0A41.792,41.792,0,0,0,361.139,63c-2.258,1.422-5.411,3.645-6.709,6.515,4.967-1.334,8.7-3.533,11.084-6.537A6.275,6.275,0,0,0,367,59.892ZM362.187,2.333a40.286,40.286,0,0,0-4.687,2.09c-8.12,4.287-16.151,10.621-23.87,18.827,6.071-1.418,13.082-3.348,19.037-6.916a22.281,22.281,0,0,0,6.757-6.369l.223-.309c1.259-1.742,3.163-4.374,2.807-6.574A1.988,1.988,0,0,0,362.187,2.333Z" transform="translate(11 86)" fill="#fefefe"/>
  </g>
</svg>
